HIERARCHY
ROOT hip
{
  OFFSET 0 0 0
  CHANNELS 6 Xposition Yposition Zposition Zrotation Yrotation Xrotation
  JOINT abdomen
  {
    OFFSET 0 20.6881 -0.73152
    CHANNELS 3 Zrotation Xrotation Yrotation
    JOINT chest
    {
      OFFSET 0 11.7043 -0.48768
      CHANNELS 3 Zrotation Xrotation Yrotation
      JOINT neck
      {
        OFFSET 0 22.1894 -2.19456
        CHANNELS 3 Zrotation Xrotation Yrotation
        JOINT head
        {
          OFFSET -0.24384 7.07133 1.2192
          CHANNELS 3 Zrotation Xrotation Yrotation
          JOINT leftEye
          {
            OFFSET 4.14528 8.04674 8.04672
            CHANNELS 3 Zrotation Xrotation Yrotation
            End Site
            {
              OFFSET 1 0 0
            }
          }
          JOINT rightEye
          {
            OFFSET -3.6576 8.04674 8.04672
            CHANNELS 3 Zrotation Xrotation Yrotation
            End Site
            {
              OFFSET 1 0 0
            }
          }
        }
      }
      JOINT rCollar
      {
        OFFSET -2.68224 19.2634 -4.8768
        CHANNELS 3 Zrotation Xrotation Yrotation
        JOINT rShldr
        {
          OFFSET -8.77824 -1.95073 1.46304
          CHANNELS 3 Zrotation Xrotation Yrotation
          JOINT rForeArm
          {
            OFFSET -28.1742 -1.7115 0.48768
            CHANNELS 3 Zrotation Xrotation Yrotation
            JOINT rHand
            {
              OFFSET -22.5879 0.773209 7.07136
              CHANNELS 3 Zrotation Xrotation Yrotation
              JOINT rThumb1
              {
                OFFSET -1.2192 -0.487915 3.41376
                CHANNELS 3 Zrotation Xrotation Yrotation
                JOINT rThumb2
                {
                  OFFSET -3.37035 -0.52449 3.41376
                  CHANNELS 3 Zrotation Xrotation Yrotation
                  End Site
                  {
                    OFFSET -1.78271 -1.18214 1.43049
                  }
                }
              }
              JOINT rIndex1
              {
                OFFSET -7.75947 0.938293 5.60832
                CHANNELS 3 Zrotation Xrotation Yrotation
                JOINT rIndex2
                {
                  OFFSET -2.54057 -0.884171 1.56538
                  CHANNELS 3 Zrotation Xrotation Yrotation
                  End Site
                  {
                    OFFSET -1.62519 -0.234802 1.16502
                  }
                }
              }
              JOINT rMid1
              {
                OFFSET -8.24714 1.18213 3.41376
                CHANNELS 3 Zrotation Xrotation Yrotation
                JOINT rMid2
                {
                  OFFSET -3.10165 -0.590103 1.0647
                  CHANNELS 3 Zrotation Xrotation Yrotation
                  End Site
                  {
                    OFFSET -2.48547 -0.328903 0.83742
                  }
                }
              }
              JOINT rRing1
              {
                OFFSET -8.82822 0.546677 1.51678
                CHANNELS 3 Zrotation Xrotation Yrotation
                JOINT rRing2
                {
                  OFFSET -2.60934 -0.819778 -0.0198488
                  CHANNELS 3 Zrotation Xrotation Yrotation
                  End Site
                  {
                    OFFSET -2.33842 -0.294052 0.168128
                  }
                }
              }
              JOINT rPinky1
              {
                OFFSET -8.27202 -0.0477905 -0.4584
                CHANNELS 3 Zrotation Xrotation Yrotation
                JOINT rPinky2
                {
                  OFFSET -1.82734 -0.647385 -0.700984
                  CHANNELS 3 Zrotation Xrotation Yrotation
                  End Site
                  {
                    OFFSET -1.69225 -0.51767 -0.607171
                  }
                }
              }
            }
          }
        }
      }
      JOINT lCollar
      {
        OFFSET 2.68224 19.2634 -4.8768
        CHANNELS 3 Zrotation Xrotation Yrotation
        JOINT lShldr
        {
          OFFSET 8.77824 -1.95073 1.46304
          CHANNELS 3 Zrotation Xrotation Yrotation
          JOINT lForeArm
          {
            OFFSET 28.1742 -1.7115 0.48768
            CHANNELS 3 Zrotation Xrotation Yrotation
            JOINT lHand
            {
              OFFSET 22.5879 0.773209 7.07136
              CHANNELS 3 Zrotation Xrotation Yrotation
              JOINT lThumb1
              {
                OFFSET 1.2192 -0.487915 3.41376
                CHANNELS 3 Zrotation Xrotation Yrotation
                JOINT lThumb2
                {
                  OFFSET 3.37035 -0.52449 3.41376
                  CHANNELS 3 Zrotation Xrotation Yrotation
                  End Site
                  {
                    OFFSET 1.78271 -1.18214 1.43049
                  }
                }
              }
              JOINT lIndex1
              {
                OFFSET 7.75947 0.938293 5.60832
                CHANNELS 3 Zrotation Xrotation Yrotation
                JOINT lIndex2
                {
                  OFFSET 2.54057 -0.884171 1.56538
                  CHANNELS 3 Zrotation Xrotation Yrotation
                  End Site
                  {
                    OFFSET 1.62519 -0.234802 1.16502
                  }
                }
              }
              JOINT lMid1
              {
                OFFSET 8.24714 1.18213 3.41376
                CHANNELS 3 Zrotation Xrotation Yrotation
                JOINT lMid2
                {
                  OFFSET 3.10165 -0.590103 1.0647
                  CHANNELS 3 Zrotation Xrotation Yrotation
                  End Site
                  {
                    OFFSET 2.48547 -0.328903 0.83742
                  }
                }
              }
              JOINT lRing1
              {
                OFFSET 8.82822 0.546677 1.51678
                CHANNELS 3 Zrotation Xrotation Yrotation
                JOINT lRing2
                {
                  OFFSET 2.60934 -0.819778 -0.0198488
                  CHANNELS 3 Zrotation Xrotation Yrotation
                  End Site
                  {
                    OFFSET 2.33842 -0.294052 0.168128
                  }
                }
              }
              JOINT lPinky1
              {
                OFFSET 8.27202 -0.0477905 -0.4584
                CHANNELS 3 Zrotation Xrotation Yrotation
                JOINT lPinky2
                {
                  OFFSET 1.82734 -0.647385 -0.700984
                  CHANNELS 3 Zrotation Xrotation Yrotation
                  End Site
                  {
                    OFFSET 1.69225 -0.51767 -0.607171
                  }
                }
              }
            }
          }
        }
      }
    }
  }
  JOINT rButtock
  {
    OFFSET -8.77824 4.35084 1.2192
    CHANNELS 3 Zrotation Xrotation Yrotation
    JOINT rThigh
    {
      OFFSET 0 -1.70687 -2.19456
      CHANNELS 3 Zrotation Xrotation Yrotation
      JOINT rShin
      {
        OFFSET 0 -36.8199 0.73152
        CHANNELS 3 Zrotation Xrotation Yrotation
        JOINT rFoot
        {
          OFFSET 0.73152 -45.1104 -5.12064
          CHANNELS 3 Zrotation Xrotation Yrotation
          End Site
          {
            OFFSET -1.1221 -3.69964 12.103
          }
        }
      }
    }
  }
  JOINT lButtock
  {
    OFFSET 8.77824 4.35084 1.2192
    CHANNELS 3 Zrotation Xrotation Yrotation
    JOINT lThigh
    {
      OFFSET 0 -1.70687 -2.19456
      CHANNELS 3 Zrotation Xrotation Yrotation
      JOINT lShin
      {
        OFFSET 0 -36.8199 0.73152
        CHANNELS 3 Zrotation Xrotation Yrotation
        JOINT lFoot
        {
          OFFSET -0.73152 -45.1104 -5.12064
          CHANNELS 3 Zrotation Xrotation Yrotation
          End Site
          {
            OFFSET 1.1221 -3.69964 12.103
          }
        }
      }
    }
  }
}
MOTION
Frames:	4
Frame Time:	0.00833333
49.47 80.9504 26.1742 28.9545 -58.4596 -17.424 -9.33647 11.1437 -7.26493 3.00467 -6.00618 -2.08041 -14.0623 -7.61599 -7.95432 15.2973 -6.55607 -9.23505 -0.0 0.0 0.0 -0.0 0.0 0.0 -6.4594e-14 -8.03363e-13 -2.92512e-13 96.0427 44.598 -27.6351 -26.9871 -44.0502 91.5437 -0.285463 -15.0334 -2.16318 -2.73827e-10 -7.13751e-09 -6.79238e-09 -3.94502e-10 -1.23863e-08 -1.17529e-08 -2.73824e-10 -7.13751e-09 -6.79238e-09 7.73091 5.47488 0.417314 -2.7383e-10 -7.13751e-09 -6.79238e-09 2.90554 0.965183 0.102902 -2.73822e-10 -7.13751e-09 -6.79238e-09 10.2786 0.731801 0.0259123 -2.73833e-10 -7.13751e-09 -6.79236e-09 2.22167 -0.733487 -0.20892 -6.46202e-14 -8.03364e-13 -2.9271e-13 -95.5151 45.4199 15.1288 26.8554 -44.3917 -92.2264 1.50627 -32.5759 5.15189 4.02363e-09 3.10994e-09 6.12663e-09 6.7946e-09 5.43505e-09 1.06831e-08 4.02363e-09 3.10994e-09 6.12664e-09 -7.73091 5.47488 -0.417314 4.02363e-09 3.10994e-09 6.12663e-09 -2.90554 0.965183 -0.102902 4.02363e-09 3.10994e-09 6.12663e-09 -10.2786 0.731801 -0.0259123 4.02364e-09 3.10994e-09 6.12662e-09 -2.22167 -0.733487 0.20892 -2.03217e-16 0.0 -3.88251e-19 4.71481 -46.4036 -12.2669 -0.67114 50.6396 0.782731 -1.50915 0.692356 -12.7589 2.03217e-16 0.0 3.88251e-19 -1.7283 6.36794 -11.103 0.160031 31.8199 -0.782642 2.9992 25.6888 -7.24829
48.2816 80.7135 27.2826 29.514 -59.2261 -17.995 -8.47187 11.1547 -7.07996 3.04936 -5.8252 -1.99825 -13.9307 -7.89829 -7.8 14.6271 -6.66868 -8.94076 -0.0 0.0 0.0 -0.0 0.0 0.0 -4.02805e-14 -9.21885e-13 -8.30275e-14 94.9275 43.9865 -26.7569 -26.9916 -44.0363 91.5184 -0.301032 -15.4498 -2.22582 -7.43663e-10 -7.1702e-09 -6.82304e-09 -1.20667e-09 -1.24439e-08 -1.18102e-08 -7.43659e-10 -7.1702e-09 -6.82304e-09 7.73091 5.47488 0.417314 -7.43665e-10 -7.1702e-09 -6.82304e-09 2.90554 0.965183 0.102902 -7.43657e-10 -7.1702e-09 -6.82304e-09 10.2786 0.731801 0.0259123 -7.43669e-10 -7.1702e-09 -6.82302e-09 2.22167 -0.733487 -0.20892 -4.02937e-14 -9.21883e-13 -8.32275e-14 -96.0774 46.2782 14.8274 26.9767 -44.0644 -91.5887 1.51818 -32.6795 5.17293 3.64765e-09 2.86079e-09 5.89484e-09 6.15006e-09 4.99829e-09 1.02737e-08 3.64765e-09 2.86079e-09 5.89485e-09 -7.73091 5.47488 -0.417314 3.64765e-09 2.86079e-09 5.89484e-09 -2.90554 0.965183 -0.102902 3.64764e-09 2.86079e-09 5.89484e-09 -10.2786 0.731801 -0.0259123 3.64765e-09 2.86079e-09 5.89483e-09 -2.22167 -0.733487 0.20892 -2.03217e-16 0.0 -3.88251e-19 5.30373 -45.2156 -12.6719 -0.671597 50.4283 0.741116 -1.65729 0.322926 -13.4481 2.03217e-16 0.0 3.88251e-19 -1.8192 5.45536 -10.7945 0.203387 34.3978 -0.803551 2.85066 25.2144 -7.1248
47.0549 80.397 28.3111 30.1096 -60.2541 -18.6334 -7.59009 11.1585 -6.89284 3.24617 -5.67307 -1.90489 -13.7365 -8.06327 -7.50452 13.7597 -6.96938 -8.40577 -0.0 0.0 0.0 -0.0 0.0 0.0 -2.55992e-14 -1.16501e-12 2.31261e-13 93.6523 43.5553 -25.9093 -26.9855 -44.0505 91.5491 -0.326912 -16.0899 -2.32287 -1.38372e-09 -6.46583e-09 -6.10116e-09 -2.32164e-09 -1.1222e-08 -1.05671e-08 -1.38372e-09 -6.46583e-09 -6.10116e-09 7.73091 5.47488 0.417314 -1.38373e-09 -6.46583e-09 -6.10116e-09 2.90554 0.965183 0.102902 -1.38372e-09 -6.46582e-09 -6.10117e-09 10.2786 0.731801 0.0259123 -1.38373e-09 -6.46583e-09 -6.10115e-09 2.22167 -0.733487 -0.20892 -2.56207e-14 -1.16501e-12 2.31065e-13 -97.2018 47.2253 14.7828 27.0762 -43.796 -91.0552 1.51998 -32.6875 5.17503 2.67599e-09 2.24442e-09 4.9469e-09 4.4943e-09 3.91788e-09 8.61266e-09 2.67599e-09 2.24442e-09 4.94691e-09 -7.73091 5.47488 -0.417314 2.67599e-09 2.24442e-09 4.9469e-09 -2.90554 0.965183 -0.102902 2.67598e-09 2.24442e-09 4.9469e-09 -10.2786 0.731801 -0.0259123 2.676e-09 2.24442e-09 4.94689e-09 -2.22167 -0.733487 0.20892 -2.03217e-16 0.0 -3.88251e-19 5.86109 -43.9013 -13.1851 -0.67854 50.4971 0.716504 -2.03352 -0.910425 -14.1155 2.03217e-16 0.0 3.88251e-19 -1.74049 4.4076 -10.0266 0.253714 37.1925 -0.830113 2.69705 24.4817 -7.07229
45.7938 80.0626 29.3445 30.8967 -61.2972 -19.5246 -6.74671 11.1702 -6.70361 3.49586 -5.56547 -1.80739 -13.5721 -8.08199 -7.19009 12.9507 -7.39539 -7.83699 -0.0 0.0 0.0 -0.0 0.0 0.0 -2.28034e-14 -1.34071e-12 4.92772e-13 92.3463 43.2632 -25.0103 -26.9853 -44.051 91.5502 -0.356126 -16.7537 -2.4245 -1.86939e-09 -5.34079e-09 -4.9571e-09 -3.17448e-09 -9.26935e-09 -8.59194e-09 -1.86938e-09 -5.34079e-09 -4.9571e-09 7.73091 5.47488 0.417314 -1.86939e-09 -5.3408e-09 -4.9571e-09 2.90554 0.965183 0.102902 -1.86938e-09 -5.34079e-09 -4.9571e-09 10.2786 0.731801 0.0259123 -1.86939e-09 -5.34079e-09 -4.95709e-09 2.22167 -0.733487 -0.20892 -2.28395e-14 -1.34069e-12 4.9258e-13 -98.4906 48.0517 14.899 27.1629 -43.5602 -90.5809 1.50318 -32.5309 5.14386 1.57732e-09 1.53424e-09 3.71626e-09 2.62657e-09 2.67344e-09 6.45995e-09 1.57731e-09 1.53424e-09 3.71626e-09 -7.73091 5.47488 -0.417314 1.57732e-09 1.53424e-09 3.71626e-09 -2.90554 0.965183 -0.102902 1.57731e-09 1.53424e-09 3.71626e-09 -10.2786 0.731801 -0.0259123 1.57732e-09 1.53424e-09 3.71625e-09 -2.22167 -0.733487 0.20892 -2.03217e-16 0.0 -3.88251e-19 6.41392 -42.5745 -13.5416 -0.688621 50.7119 0.702189 -2.53253 -2.54516 -14.6901 2.03217e-16 0.0 3.88251e-19 -1.56033 3.20328 -9.11158 0.312919 40.0869 -0.862449 2.48409 23.6726 -6.83571
